<?xml version="1.0" encoding="UTF-8" standalone="no"?>
<svg width="864px" height="145px" viewBox="0 0 864 145" version="1.1" xmlns="http://www.w3.org/2000/svg" xmlns:xlink="http://www.w3.org/1999/xlink">
    <!-- Generator: Sketch 3.7.1 (28215) - http://www.bohemiancoding.com/sketch -->
    <title>autodesk-logo-cmyk-white-large</title>
    <desc>Created with Sketch.</desc>
    <defs>
        <polygon id="path-1" points="0.000106431198 144.94 151.384 144.94 151.384 0.902 0.000106431198 0.902 0.000106431198 144.94"></polygon>
    </defs>
    <g id="Page-1" stroke="none" stroke-width="1" fill="none" fill-rule="evenodd">
        <g id="Artboard-1-Copy-11" transform="translate(-53.000000, -482.000000)">
            <g id="autodesk-logo-cmyk-white-large" transform="translate(53.000000, 482.000000)">
                <g id="Group-4">
                    <mask id="mask-2" fill="white">
                        <use xlink:href="#path-1"></use>
                    </mask>
                    <g id="Clip-2"></g>
                    <path d="M36.191,108.079 L10.773,108.082 C1.129,108.082 -1.005,101.95 0.592,96.945 L0.432,97.443 C-0.755,101.778 0.74,103.965 2.081,106.537 C6.479,114.976 20.292,140.297 20.292,140.297 C22.025,143.322 24.405,145 28.341,145 C36.093,145 48.543,136.986 48.543,136.986 L95.013,108.079 L36.191,108.079" id="Fill-1" fill="#FFFFFF" mask="url(#mask-2)"></path>
                    <path d="M92.195,4.821 C91.835,3.975 90.281,0.993 85.987,0.907 C86.036,0.905 85.8,0.902 85.8,0.902 L45.505,0.905 C41.282,0.905 39.683,3.659 39.36,4.323 C39.36,4.323 40.776,1.252 45.499,1.252 L45.594,1.252 C50.028,1.252 51.62,5.005 52.056,5.928 C52.105,6.03 57.832,19.619 65.702,38.259 C83.044,79.348 110.758,145 110.758,145 L151.384,145 C151.384,145 92.56,5.684 92.195,4.821" id="Fill-3" fill="#FFFFFF" mask="url(#mask-2)"></path>
                </g>
                <path d="M38.303,6.852 L1.985,93.461 C0.001,98.827 1.279,105.472 10.991,105.472 L37.285,105.468 L64.277,41.622 C56.406,22.981 50.697,9.428 50.649,9.315 C49.808,7.321 48.458,3.153 43.94,3.153 C40.037,3.153 38.705,5.887 38.303,6.852" id="Fill-5" fill="#FFFFFF"></path>
                <path d="M222.309,41.326 L208.011,74.704 L236.729,74.704 L222.309,41.326 L222.309,41.326 Z M266.042,107.822 L250.554,107.822 L242.089,87.692 L202.646,87.692 L194.058,107.822 L179.058,107.822 L215.758,23.811 L229.336,23.811 L266.042,107.822 L266.042,107.822 Z" id="Fill-6" fill="#FFFFFF"></path>
                <polyline id="Fill-7" fill="#FFFFFF" points="401.278 107.822 386.5 107.822 386.5 37.989 360.042 37.989 360.042 24.405 428.921 24.405 423.237 37.989 401.278 37.989 401.278 107.822"></polyline>
                <polyline id="Fill-8" fill="#FFFFFF" points="681.893 37.989 637.229 37.989 637.229 59.209 665.836 59.209 665.836 72.323 637.229 72.323 637.229 94.49 681.912 94.49 681.912 107.822 622.461 107.822 622.461 24.405 681.893 24.405 681.893 37.989"></polyline>
                <polygon id="Fill-9" fill="#FFFFFF" points="772.65 107.822 786.637 107.822 786.637 24.405 772.65 24.405"></polygon>
                <path d="M727.198,36.44 C718.676,36.44 711.437,39.013 711.398,44.675 C711.355,51.298 715.511,53.595 731.199,58.694 C748.535,64.402 757.748,70.198 757.657,84.3 C757.558,100.195 745.275,109.258 727.33,109.258 C714.633,109.258 703.249,105.143 694.568,97.505 L699.969,84.423 C707.843,91.028 717.395,95.702 727.715,95.752 C736.729,95.792 743.158,91.404 743.158,84.892 C743.158,79.455 740.017,75.837 724.801,71.015 C707.345,65.294 696.802,59.32 696.885,45.106 C696.991,30.969 710.255,22.927 726.932,23.011 C743.609,23.092 752.998,29.186 754.417,30.011 L749.184,41.907 C745.773,40.071 738.305,36.44 727.198,36.44" id="Fill-10" fill="#FFFFFF"></path>
                <polyline id="Fill-11" fill="#FFFFFF" points="804.65 64.785 841.995 24.405 824.105 24.405 786.637 64.785 827.81 107.832 845.936 107.832 804.65 64.785"></polyline>
                <path d="M474.097,95.799 C457.704,95.799 445.739,82.51 445.739,66.117 C445.739,49.73 457.704,36.44 474.097,36.44 C490.489,36.44 502.469,49.73 502.469,66.117 C502.469,82.51 490.489,95.799 474.097,95.799 L474.097,95.799 Z M474.097,22.973 C450.272,22.973 430.959,42.294 430.959,66.117 C430.959,89.952 450.272,109.263 474.097,109.263 C497.921,109.263 517.248,89.952 517.248,66.117 C517.248,42.294 497.921,22.973 474.097,22.973 L474.097,22.973 Z" id="Fill-12" fill="#FFFFFF"></path>
                <path d="M564.327,94.473 L547.477,94.49 L547.477,38.002 L564.393,38.002 C580.782,38.002 592.686,49.613 592.686,66.004 C592.686,82.389 580.71,94.473 564.327,94.473 L564.327,94.473 Z M564.327,24.405 L532.687,24.405 L532.687,107.822 L564.327,107.815 C588.147,107.815 607.459,89.827 607.459,66.004 C607.459,42.17 588.147,24.405 564.327,24.405 L564.327,24.405 Z" id="Fill-13" fill="#FFFFFF"></path>
                <path d="M343.93,70.859 C343.93,95.726 329.335,109.137 308.173,109.137 C287.017,109.137 272.425,95.726 272.425,70.859 L272.425,24.405 L287.202,24.405 L287.202,72.623 C287.202,87.209 295.765,95.776 308.18,95.776 C320.592,95.776 329.156,87.209 329.156,72.623 L329.156,24.405 L343.93,24.405 L343.93,70.859" id="Fill-14" fill="#FFFFFF"></path>
                <path d="M863.169,102.243 C863.169,105.028 861.155,107.029 858.429,107.029 C855.726,107.029 853.698,105.028 853.698,102.243 C853.698,99.462 855.726,97.451 858.429,97.451 C861.155,97.451 863.169,99.462 863.169,102.243 L863.169,102.243 Z M864,102.243 C864,99.169 861.503,96.672 858.429,96.672 C855.38,96.672 852.875,99.169 852.875,102.243 C852.875,105.313 855.38,107.803 858.429,107.803 C861.503,107.803 864,105.313 864,102.243 L864,102.243 Z" id="Fill-15" fill="#FFFFFF"></path>
                <path d="M859.459,100.944 C859.459,101.766 858.778,101.85 858.123,101.85 L857.539,101.85 L857.539,100.029 L858.394,100.029 C859.177,100.029 859.459,100.407 859.459,100.944 L859.459,100.944 Z M860.838,105.084 L859.496,103.189 C859.261,102.852 859.084,102.626 858.827,102.429 C859.789,102.305 860.355,101.782 860.355,100.944 C860.355,100.089 859.759,99.32 858.591,99.32 L856.703,99.32 L856.703,105.084 L857.539,105.084 L857.539,102.499 C857.983,102.499 858.16,102.635 858.447,103.061 L859.835,105.084 L860.838,105.084 L860.838,105.084 Z" id="Fill-16" fill="#FFFFFF"></path>
            </g>
        </g>
    </g>
</svg>