<svg xmlns="http://www.w3.org/2000/svg" width="24" height="24" viewBox="0 0 24 24">
  <path fill="#000000" fill-rule="evenodd" d="M863,92.52 C868.7897,92.52 873.5,97.2303 873.5,103.02 C873.5,108.8097 868.7897,113.52 863,113.52 C857.2103,113.52 852.5,108.8097 852.5,103.02 C852.5,97.2303 857.2103,92.52 863,92.52 L863,92.52 Z M863,91.02 C856.373,91.02 851,96.393 851,103.02 C851,109.647 856.373,115.02 863,115.02 C869.627,115.02 875,109.647 875,103.02 C875,96.393 869.627,91.02 863,91.02 L863,91.02 Z M863,103.57 L857.008,99 L868.991,99 L863,103.57 L863,103.57 Z M863,104.858 L857,100.229 L857,107 L869,107 L869,100.229 L863,104.858 L863,104.858 Z" transform="translate(-851 -91)" opacity=".701"/>
</svg>
