<svg xmlns="http://www.w3.org/2000/svg" width="30" height="30" viewBox="0 0 30 30">
  <path fill="#FFFFFF" fill-rule="evenodd" d="M566,549.4375 C573.478363,549.4375 579.5625,555.521637 579.5625,563 C579.5625,570.478363 573.478363,576.5625 566,576.5625 C558.521637,576.5625 552.4375,570.478363 552.4375,563 C552.4375,555.521637 558.521637,549.4375 566,549.4375 L566,549.4375 Z M566,548 C557.71625,548 551,554.71625 551,563 C551,571.28375 557.71625,578 566,578 C574.28375,578 581,571.28375 581,563 C581,554.71625 574.28375,548 566,548 L566,548 Z M563.5,560.5 L561,560.5 L561,563 L563.5,563 L563.5,570.5 L567.25,570.5 L567.25,563 L569.525,563 L569.75,560.5 L567.25,560.5 L567.25,559.45875 C567.25,558.86125 567.37,558.625 567.9475,558.625 L569.75,558.625 L569.75,555.5 L566.745,555.5 C564.4975,555.5 563.5,556.49 563.5,558.385 L563.5,560.5 L563.5,560.5 Z" transform="translate(-551 -548)"/>
</svg>
