<svg xmlns="http://www.w3.org/2000/svg" width="24" height="24" viewBox="0 0 24 24">
  <path fill="#000000" fill-rule="evenodd" d="M945,92.5 C950.7897,92.5 955.5,97.2103 955.5,103 C955.5,108.7897 950.7897,113.5 945,113.5 C939.2103,113.5 934.5,108.7897 934.5,103 C934.5,97.2103 939.2103,92.5 945,92.5 L945,92.5 Z M945,91 C938.373,91 933,96.373 933,103 C933,109.627 938.373,115 945,115 C951.627,115 957,109.627 957,103 C957,96.373 951.627,91 945,91 L945,91 Z M943,101 L941,101 L941,103 L943,103 L943,109 L946,109 L946,103 L947.82,103 L948,101 L946,101 L946,100.167 C946,99.689 946.096,99.5 946.558,99.5 L948,99.5 L948,97 L945.596,97 C943.798,97 943,97.792 943,99.308 L943,101 L943,101 Z" transform="translate(-933 -91)" opacity=".701"/>
</svg>
