<svg xmlns="http://www.w3.org/2000/svg" width="105" height="105" viewBox="0 0 105 105">
  <g fill="none" fill-rule="evenodd">
    <path fill="#000000" d="M0,0 L95.003469,0 C100.524401,0 105,4.47812947 105,9.99653096 L105,105 L0,0 Z"/>
    <path fill="#FFFFFF" d="M57.8384774,30.9629774 C58.6664774,30.9629774 59.3414774,30.6389774 59.7644774,30.3059774 L59.2874774,29.6309774 C58.9274774,29.8739774 58.4864774,30.0899774 57.8654774,30.0899774 C56.9474774,30.0899774 56.4884774,29.5679774 56.4884774,28.5779774 L56.4884774,26.8769774 C56.4884774,25.8689774 57.0014774,25.3019774 57.9194774,25.3019774 C58.4954774,25.3019774 58.8824774,25.4999774 59.2424774,25.7609774 L59.8184774,25.1129774 C59.3324774,24.7259774 58.7744774,24.4289774 57.8834774,24.4289774 C56.3084774,24.4289774 55.3544774,25.4009774 55.3544774,26.9399774 L55.3544774,28.5959774 C55.3544774,30.0179774 56.2544774,30.9629774 57.8384774,30.9629774 Z M63.1844774,24.4289774 C61.4564774,24.4289774 60.6014774,25.5089774 60.6014774,26.9939774 L60.6014774,28.4069774 C60.6014774,29.8739774 61.4654774,30.9629774 63.1844774,30.9629774 C64.9214774,30.9629774 65.7764774,29.8739774 65.7764774,28.4069774 L65.7764774,26.9939774 C65.7764774,25.5089774 64.9214774,24.4289774 63.1844774,24.4289774 Z M63.1844774,25.3019774 C64.1654774,25.3019774 64.6334774,25.9679774 64.6334774,26.9849774 L64.6334774,28.4249774 C64.6334774,29.4149774 64.1744774,30.0899774 63.1844774,30.0899774 C62.1944774,30.0899774 61.7354774,29.4149774 61.7354774,28.4249774 L61.7354774,26.9849774 C61.7354774,25.9679774 62.2034774,25.3019774 63.1844774,25.3019774 Z M71.8874774,24.5459774 L71.8874774,24.5639774 L70.3124774,28.9919774 L68.7734774,24.5459774 L67.3064774,24.5459774 L67.3064774,30.8459774 L68.3324774,30.8459774 L68.3324774,26.1299774 L69.6824774,29.9459774 L70.8794774,29.9459774 L70.8794774,29.9369774 L72.1934774,26.2469774 L72.1934774,30.8459774 L73.2824774,30.8459774 L73.2824774,24.5459774 L71.8874774,24.5459774 Z M77.6024774,25.4189774 L77.6024774,24.5459774 L74.8484774,24.5459774 L74.8484774,25.4189774 L75.6584774,25.4189774 L75.6584774,29.9729774 L74.8484774,29.9729774 L74.8484774,30.8459774 L77.6024774,30.8459774 L77.6024774,29.9729774 L76.7924774,29.9729774 L76.7924774,25.4189774 L77.6024774,25.4189774 Z M82.9484774,24.5459774 L82.9484774,29.2709774 L80.5274774,24.5459774 L79.1684774,24.5459774 L79.1684774,30.8459774 L80.1674774,30.8459774 L80.1674774,25.9679774 L82.6424774,30.8459774 L83.9564774,30.8459774 L83.9564774,24.5459774 L82.9484774,24.5459774 Z M87.8714774,27.3629774 L87.8714774,28.2089774 L89.2034774,28.2089774 L89.2034774,29.4329774 C88.9244774,29.8289774 88.4924774,30.0899774 87.8984774,30.0899774 C87.0524774,30.0899774 86.6204774,29.5679774 86.6204774,28.7129774 L86.6204774,26.9309774 C86.6204774,25.8959774 87.0974774,25.3019774 88.0874774,25.3019774 C88.7534774,25.3019774 89.1494774,25.5089774 89.5004774,25.9409774 L90.2384774,25.4189774 C89.7704774,24.8069774 89.1044774,24.4289774 88.0604774,24.4289774 C86.4404774,24.4289774 85.4864774,25.4369774 85.4864774,26.9849774 L85.4864774,28.7399774 C85.4864774,30.1529774 86.4404774,30.9629774 87.6554774,30.9629774 C88.3754774,30.9629774 88.9244774,30.6839774 89.3114774,30.3059774 L89.4104774,30.8459774 L90.3014774,30.8459774 L90.3014774,27.3629774 L87.8714774,27.3629774 Z M63.0089774,42.9629774 C64.4219774,42.9629774 65.4119774,42.2519774 65.4119774,41.1899774 L65.4119774,40.9469774 C65.4119774,39.9839774 64.7549774,39.5249774 63.8909774,39.2549774 L63.0539774,38.9849774 C62.3339774,38.7599774 62.0459774,38.4989774 62.0459774,38.1839774 L62.0459774,38.0309774 C62.0459774,37.6799774 62.3879774,37.2929774 63.2069774,37.2929774 C63.8369774,37.2929774 64.2419774,37.4369774 64.8179774,37.8689774 L65.3759774,37.2479774 C64.8089774,36.7259774 64.1159774,36.4289774 63.1619774,36.4289774 C61.7219774,36.4289774 60.9119774,37.1849774 60.9119774,38.0399774 L60.9119774,38.2469774 C60.9119774,38.9399774 61.3349774,39.4979774 62.3969774,39.8399774 L63.3239774,40.1459774 C64.0709774,40.3889774 64.2869774,40.6139774 64.2869774,41.0639774 L64.2869774,41.1809774 C64.2869774,41.6039774 63.8819774,42.0629774 62.9549774,42.0629774 C62.0999774,42.0629774 61.7489774,41.8199774 61.2179774,41.4689774 L60.6509774,42.1439774 C61.1459774,42.6029774 61.8659774,42.9629774 63.0089774,42.9629774 Z M69.0929774,36.4289774 C67.3649774,36.4289774 66.5099774,37.5089774 66.5099774,38.9939774 L66.5099774,40.4069774 C66.5099774,41.8739774 67.3739774,42.9629774 69.0929774,42.9629774 C70.8299774,42.9629774 71.6849774,41.8739774 71.6849774,40.4069774 L71.6849774,38.9939774 C71.6849774,37.5089774 70.8299774,36.4289774 69.0929774,36.4289774 Z M69.0929774,37.3019774 C70.0739774,37.3019774 70.5419774,37.9679774 70.5419774,38.9849774 L70.5419774,40.4249774 C70.5419774,41.4149774 70.0829774,42.0899774 69.0929774,42.0899774 C68.1029774,42.0899774 67.6439774,41.4149774 67.6439774,40.4249774 L67.6439774,38.9849774 C67.6439774,37.9679774 68.1119774,37.3019774 69.0929774,37.3019774 Z M75.4469774,36.4289774 C73.7189774,36.4289774 72.8639774,37.5089774 72.8639774,38.9939774 L72.8639774,40.4069774 C72.8639774,41.8739774 73.7279774,42.9629774 75.4469774,42.9629774 C77.1839774,42.9629774 78.0389774,41.8739774 78.0389774,40.4069774 L78.0389774,38.9939774 C78.0389774,37.5089774 77.1839774,36.4289774 75.4469774,36.4289774 Z M75.4469774,37.3019774 C76.4279774,37.3019774 76.8959774,37.9679774 76.8959774,38.9849774 L76.8959774,40.4249774 C76.8959774,41.4149774 76.4369774,42.0899774 75.4469774,42.0899774 C74.4569774,42.0899774 73.9979774,41.4149774 73.9979774,40.4249774 L73.9979774,38.9849774 C73.9979774,37.9679774 74.4659774,37.3019774 75.4469774,37.3019774 Z M83.3489774,36.5459774 L83.3489774,41.2709774 L80.9279774,36.5459774 L79.5689774,36.5459774 L79.5689774,42.8459774 L80.5679774,42.8459774 L80.5679774,37.9679774 L83.0429774,42.8459774 L84.3569774,42.8459774 L84.3569774,36.5459774 L83.3489774,36.5459774 Z" transform="rotate(45 72.828 33.696)"/>
  </g>
</svg>
