<svg xmlns="http://www.w3.org/2000/svg" width="30" height="30" viewBox="0 0 30 30">
  <path fill="#FFFFFF" fill-rule="evenodd" d="M528,549.4375 C535.478363,549.4375 541.5625,555.521637 541.5625,563 C541.5625,570.478363 535.478363,576.5625 528,576.5625 C520.521637,576.5625 514.4375,570.478363 514.4375,563 C514.4375,555.521637 520.521637,549.4375 528,549.4375 L528,549.4375 Z M528,548 C519.71625,548 513,554.71625 513,563 C513,571.28375 519.71625,578 528,578 C536.28375,578 543,571.28375 543,563 C543,554.71625 536.28375,548 528,548 L528,548 Z M536.125,558.9725 C535.57375,559.2175 534.98,559.3825 534.3575,559.4575 C534.99375,559.07625 535.48,558.47375 535.71125,557.755 C535.11625,558.1075 534.4575,558.36375 533.75625,558.50125 C533.19625,557.9025 532.395,557.52875 531.51125,557.52875 C529.52375,557.52875 528.06375,559.3825 528.5125,561.3075 C525.95625,561.17875 523.6875,559.95375 522.17,558.0925 C521.36375,559.475 521.7525,561.285 523.1225,562.20125 C522.61875,562.185 522.145,562.04625 521.73,561.81625 C521.69625,563.24125 522.71875,564.575 524.19875,564.8725 C523.76625,564.99 523.29125,565.0175 522.80875,564.925 C523.2,566.1475 524.33875,567.03625 525.68375,567.06125 C524.3875,568.07625 522.75875,568.53 521.125,568.3375 C522.4875,569.21125 524.10375,569.72 525.84125,569.72 C531.55625,569.72 534.78375,564.89375 534.58875,560.565 C535.19125,560.1325 535.7125,559.59 536.125,558.9725 L536.125,558.9725 Z" transform="translate(-513 -548)"/>
</svg>
