<svg xmlns="http://www.w3.org/2000/svg" width="24" height="24" viewBox="0 0 24 24">
  <path fill="#000000" fill-rule="evenodd" d="M904,92.5 C909.7897,92.5 914.5,97.2103 914.5,103 C914.5,108.7897 909.7897,113.5 904,113.5 C898.2103,113.5 893.5,108.7897 893.5,103 C893.5,97.2103 898.2103,92.5 904,92.5 L904,92.5 Z M904,91 C897.373,91 892,96.373 892,103 C892,109.627 897.373,115 904,115 C910.627,115 916,109.627 916,103 C916,96.373 910.627,91 904,91 L904,91 Z M910.5,99.778 C910.059,99.974 909.584,100.106 909.086,100.166 C909.595,99.861 909.984,99.379 910.169,98.804 C909.693,99.086 909.166,99.291 908.605,99.401 C908.157,98.922 907.516,98.623 906.809,98.623 C905.219,98.623 904.051,100.106 904.41,101.646 C902.365,101.543 900.55,100.563 899.336,99.074 C898.691,100.18 899.002,101.628 900.098,102.361 C899.695,102.348 899.316,102.237 898.984,102.053 C898.957,103.193 899.775,104.26 900.959,104.498 C900.613,104.592 900.233,104.614 899.847,104.54 C900.16,105.518 901.071,106.229 902.147,106.249 C901.11,107.061 899.807,107.424 898.5,107.27 C899.59,107.969 900.883,108.376 902.273,108.376 C906.845,108.376 909.427,104.515 909.271,101.052 C909.753,100.706 910.17,100.272 910.5,99.778 L910.5,99.778 Z" transform="translate(-892 -91)" opacity=".701"/>
</svg>
